<svg
    version="1.1"
    xmlns="http://www.w3.org/2000/svg"
    viewBox="126.28 146.364 82.111 100.211"
>
    <path style="stroke: rgb(0, 0, 0); stroke-width: 2px; stroke-linejoin: round; fill: rgb(119, 208, 144);" d="M 156.7 221.715 C 151.383 231.733 164.053 243.214 167.029 246.575 C 170.005 243.178 182.675 231.697 177.358 221.679"/>
    <path style="stroke: rgb(0, 0, 0); fill: rgb(119, 208, 144);" d="M 142.272 207.939 C 139.088 201.958 139.998 203.295 138.513 196.125 C 132.891 196.956 119.048 213.687 131.003 222.864 C 136.338 226.959 136.721 211.444 142.272 207.939 Z"/>
    <path style="stroke: rgb(0, 0, 0); fill: rgb(119, 208, 144);" d="M 191.476 199.146 C 188.285 206.069 188.22 207.92 185.769 212.571 C 204.014 218.498 215.766 190.569 203.088 188.271 C 195.192 186.84 201.569 199.364 191.476 199.146 Z"/>
    <path style="stroke: rgb(0, 0, 0); fill: rgb(119, 208, 144);" d="M 173.956 161.107 C 176.195 155.306 172.326 145.197 180.534 146.474 C 196.849 149.012 182.884 167.82 182.884 167.82"/>
    <path style="stroke: rgb(0, 0, 0); fill: rgb(119, 208, 144);" d="M 147.406 167.031 C 147.122 169.567 126.124 167.143 134.927 155.552 C 141.613 146.747 145.335 159.706 157.475 159.379"/>
    <path style="fill: rgb(216, 216, 216); stroke: rgb(0, 0, 0);" d="M 162.678 158.154 L 167.511 158.02"/>
    <path style="stroke: rgb(0, 0, 0); fill: rgb(119, 208, 144);" d="M 162.354 158.771 C 162.017 148.21 167.662 147.957 167.999 158.518"/>
    <circle style="stroke: rgba(0, 0, 0,0.52); stroke-width: 7.37603px; fill: rgb(201, 156, 109);" cx="258.483" cy="212.276" r="61.489" transform="matrix(0.431929, 0, 0, 0.519574, 53.236794, 81.083017)"/>
</svg>